<svg preserveAspectRatio="none" width="100%" height="100%" overflow="visible" style="display: block;" viewBox="0 0 330 16.0001" fill="none" xmlns="http://www.w3.org/2000/svg">
<g id="ic_logo">
<path id="Vector" d="M294.443 6.56548H286.608L284.676 13.836H291.205C292.37 13.836 293.389 13.0477 293.69 11.9119L294.938 7.22154C295.025 6.89351 294.778 6.56548 294.443 6.56548ZM299.219 6.6634L297.613 12.7001C297.113 14.59 295.414 15.907 293.472 15.907H280.734L283.768 4.48469H297.559C298.69 4.48469 299.511 5.5667 299.219 6.6634ZM275.346 4.48469H271.113L261.284 15.907H263.915C264.41 15.907 264.885 15.6867 265.211 15.3097L266.482 13.8311H271.55C272.045 13.8311 272.521 13.6108 272.846 13.2338L274.118 11.7552H268.269L273.201 6.02692L276.065 14.7271C276.298 15.4321 276.953 15.9119 277.691 15.9119H280.341L276.972 5.67441C276.739 4.9645 276.084 4.48959 275.346 4.48959M330 4.48469H325.976L322.015 7.90697L320.374 5.29253C320.059 4.79314 319.51 4.48469 318.923 4.48469H315.714L319.316 10.2326L312.743 15.907H316.767L320.728 12.4847L322.369 15.0992C322.685 15.5985 323.233 15.907 323.821 15.907H327.029L323.427 10.1591L330 4.48469ZM308.18 10.6389L309.457 9.16034H300.19L299.627 11.2362H306.884C307.379 11.2362 307.855 11.0208 308.18 10.6389ZM299.069 13.3121L298.37 15.907H309.729C310.141 15.907 310.535 15.7601 310.85 15.4859L313.36 13.3072H299.074L299.069 13.3121ZM313.607 6.48714L315.331 4.48469H301.433L300.734 7.07955H312.316C312.816 7.07955 313.287 6.86413 313.612 6.48225M262.036 13.8311L260.25 15.907H250.497C248.803 15.907 247.575 14.2864 248.012 12.6365L249.328 7.69155C249.832 5.80171 251.531 4.48469 253.473 4.48469H266.953L265.167 6.56058H255.06C254.128 6.56058 253.313 7.19216 253.07 8.09792L251.837 12.7393C251.692 13.2876 252.099 13.8311 252.667 13.8311H262.041H262.036Z" fill="var(--fill-0, black)"/>
<path id="Vector_2" d="M165.99 5.67449C165.32 4.94009 164.277 4.57289 162.903 4.57289C161.388 4.57289 160.267 4.95478 159.573 5.70876C159.505 5.7773 159.452 5.85074 159.398 5.92418C159.34 5.84095 159.282 5.75772 159.204 5.67449C158.529 4.94009 157.486 4.57289 156.112 4.57289C154.602 4.57289 153.481 4.95478 152.782 5.70876C152.039 6.5117 152.083 7.42235 152.088 7.4811V15.5203H153.243V7.44683C153.243 7.44683 153.224 6.92296 153.646 6.48232C154.112 5.99272 154.966 5.73324 156.112 5.73324C157.146 5.73324 157.893 5.97804 158.345 6.45295C158.835 6.97681 158.811 7.62308 158.806 7.69163V15.5203H160.029V7.44683C160.029 7.44683 160.01 6.92296 160.432 6.48232C160.898 5.99272 161.748 5.73324 162.903 5.73324C163.937 5.73324 164.684 5.97804 165.131 6.45295C165.621 6.97681 165.597 7.62308 165.592 7.69163V15.5203H166.748V7.73569C166.748 7.68673 166.82 6.57534 165.99 5.67449ZM190.82 5.69407C190.145 4.96457 189.106 4.59248 187.732 4.59248C186.218 4.59248 185.096 4.97436 184.402 5.72834C184.339 5.80178 184.286 5.87033 184.232 5.94376C184.174 5.86053 184.111 5.7773 184.038 5.69407C183.364 4.96457 182.325 4.59248 180.946 4.59248C179.436 4.59248 178.315 4.97436 177.621 5.72834C176.873 6.53128 176.917 7.44193 176.922 7.50068V15.5448H178.077V7.46641C178.077 7.46641 178.058 6.94744 178.48 6.50191C178.946 6.0172 179.796 5.75282 180.946 5.75282C181.98 5.75282 182.732 5.99272 183.179 6.47253C183.669 6.9964 183.64 7.64756 183.635 7.71121V15.5399H184.859V7.46641C184.859 7.46641 184.839 6.94744 185.262 6.50191C185.723 6.0172 186.577 5.75282 187.727 5.75282C188.757 5.75282 189.509 5.99272 189.956 6.47253C190.446 6.9964 190.422 7.64756 190.412 7.71121V15.5399H191.567V7.75527C191.567 7.70631 191.64 6.59493 190.81 5.69407M175.014 5.67449C174.34 4.94009 173.301 4.57289 171.927 4.57289C170.412 4.57289 169.296 4.95478 168.597 5.70876C167.854 6.5117 167.893 7.42235 167.903 7.4811V13.1653C167.927 13.464 168.053 14.0711 168.655 14.7222C169.33 15.4566 170.369 15.8238 171.743 15.8238C173.257 15.8238 174.378 15.4419 175.068 14.688C175.621 14.0858 175.742 13.4689 175.762 13.1653V13.1115C175.767 13.038 175.762 12.9891 175.762 12.9793V7.70142C175.772 7.54475 175.786 6.51659 175.009 5.66959M174.616 7.61329V12.9989C174.616 13.1311 174.568 13.5423 174.213 13.9144C173.747 14.404 172.893 14.6635 171.743 14.6635C170.709 14.6635 169.961 14.4187 169.51 13.9438C169.102 13.508 169.053 12.994 169.048 12.7883V12.7051V7.44193C169.048 7.44193 169.034 6.91806 169.451 6.47743C169.917 5.98783 170.767 5.72834 171.917 5.72834C172.951 5.72834 173.699 5.97314 174.145 6.44805C174.558 6.88379 174.602 7.40766 174.607 7.60839M235.843 5.73324C235.168 4.99884 234.124 4.63164 232.75 4.63164C231.236 4.63164 230.115 5.01353 229.42 5.76751C229.367 5.82137 229.328 5.88012 229.28 5.93887C229.226 5.87033 229.178 5.80178 229.119 5.73324C228.445 4.99884 227.406 4.63164 226.027 4.63164C224.518 4.63164 223.391 5.01353 222.702 5.76751C221.959 6.57534 221.989 7.53985 221.989 7.53985V12.7639C221.989 14.3991 221.246 14.7418 220.625 14.7418H219.591C219.042 14.7418 218.629 14.5998 218.367 14.311C217.926 13.8214 217.989 13.0429 217.994 12.9793V6.57535H216.838V12.9156C216.833 12.9695 216.717 14.2082 217.503 15.0845C217.994 15.6329 218.697 15.9071 219.591 15.9071H220.625C221.843 15.9071 223.139 15.0796 223.139 12.7639V12.4211L223.158 7.49579C223.158 7.49579 223.144 6.9964 223.547 6.55576C224.008 6.05637 224.867 5.79199 226.027 5.79199C227.061 5.79199 227.814 6.03189 228.26 6.5117C228.751 7.03557 228.721 7.68673 228.721 7.75038V15.579H229.882V7.50068C229.882 7.50068 229.862 7.00129 230.27 6.56066C230.731 6.06127 231.59 5.79689 232.755 5.79689C233.789 5.79689 234.537 6.03679 234.988 6.51659C235.478 7.04046 235.449 7.69163 235.445 7.75527V15.5839H236.6V7.79934C236.6 7.75038 236.673 6.63899 235.847 5.73813M213.863 4.85686H212.707V6.57535H210.877V7.74059H212.707V13.5864C212.707 14.3599 212.707 14.83 211.169 14.83C210.605 14.83 210.212 14.688 209.974 14.4285C209.693 14.1298 209.717 13.508 209.717 13.508V7.75527C209.727 7.70631 209.8 6.59493 208.97 5.69407C208.295 4.96457 207.251 4.59248 205.877 4.59248C204.363 4.59248 203.242 4.97436 202.547 5.72834C201.805 6.53128 201.844 7.44193 201.848 7.50068V15.4566H203.004V7.46641C203.004 7.46641 202.984 6.94744 203.407 6.50191C203.873 6.0172 204.727 5.75282 205.877 5.75282C206.911 5.75282 207.659 5.99272 208.106 6.47253C208.601 6.9964 208.572 7.64756 208.567 7.71121V13.3905C208.572 13.6598 208.499 14.4872 209.096 15.1874C209.557 15.7259 210.256 15.9952 211.169 15.9952C213.542 15.9952 213.867 14.7761 213.867 13.5864V7.74059H215.576V6.57535H213.867V4.85686H213.863ZM200.577 12.5386H199.421V13.0184C199.421 13.1506 199.373 13.5619 199.018 13.9389C198.552 14.4285 197.698 14.6831 196.552 14.6831C195.519 14.6831 194.766 14.4432 194.32 13.9634C193.917 13.5325 193.863 13.0282 193.858 12.8177V12.7247V7.63287V7.46641C193.858 7.46641 193.844 6.94744 194.261 6.50191C194.722 6.0172 195.582 5.75282 196.732 5.75282C197.766 5.75282 198.514 5.99272 198.96 6.47253C199.373 6.91317 199.421 7.43214 199.421 7.63287V9.82627H195.96V10.8985H199.421H200.577V7.71611C200.586 7.53006 200.586 6.53128 199.819 5.69407C199.145 4.96457 198.106 4.59248 196.732 4.59248C195.218 4.59248 194.096 4.97436 193.402 5.72834C192.659 6.53128 192.698 7.44193 192.708 7.50068V13.1898H192.718C192.722 13.2877 192.732 13.3856 192.737 13.4493C192.795 13.8654 192.97 14.2082 193.46 14.7467C194.135 15.4811 195.174 15.8483 196.552 15.8483C198.067 15.8483 199.183 15.4664 199.878 14.7124C200.407 14.1445 200.543 13.5472 200.567 13.1947H200.577V13.0772C200.577 13.0087 200.577 12.9548 200.577 12.945V12.5435V12.5386Z" fill="var(--fill-0, black)"/>
<g id="Group 625640">
<path id="Vector_3" d="M113.87 11.3881H103.803C103.803 11.3881 103.089 12.6023 102.759 13.2045C102.39 13.8654 102.327 14.732 103.036 15.2657C103.633 15.7161 104.478 15.9952 105.439 15.9952H109.079C110.269 15.9952 111.725 15.1433 112.322 14.1053L113.875 11.3881H113.87Z" fill="var(--fill-0, black)"/>
<path id="Vector_4" d="M126.064 1.88984C126.656 0.851899 127.147 0 127.147 0H123.783C122.593 0 121.132 0.851899 120.54 1.88984L120.482 1.99756C119.89 3.0355 119.404 3.87761 119.404 3.87761H122.768C123.958 3.87761 125.419 3.02571 126.011 1.98776L126.069 1.88984H126.064Z" fill="var(--fill-0, black)"/>
<path id="Vector_5" d="M106.968 0C105.778 0 104.317 0.847003 103.725 1.88984C103.725 1.88984 101.41 5.92412 100.871 6.86905C100.206 8.03429 100.031 9.42964 100.749 11.2656C100.919 11.7014 101.623 13.4884 101.677 13.5961C101.982 14.262 102.473 14.8544 103.036 15.2607C102.356 14.7222 102.667 13.4003 102.914 12.9694C103.643 11.6916 110.332 0 110.332 0H106.968Z" fill="var(--fill-0, black)"/>
<path id="Vector_6" d="M119.074 14.1053L124.103 5.33171H120.739C119.55 5.33171 118.089 6.18361 117.497 7.22155L112.468 15.9951H115.832C117.021 15.9951 118.482 15.1432 119.074 14.1053Z" fill="var(--fill-0, black)"/>
<path id="Vector_7" d="M127.287 5.33172C128.642 5.33172 129.574 6.07101 129.758 7.34886C129.758 7.34886 130.438 13.0527 130.613 14.3109C130.763 15.4174 131.346 15.9903 132.515 15.9903H128.025C126.953 15.9903 125.817 14.9621 125.666 13.557L124.676 5.32683H127.292L127.287 5.33172Z" fill="var(--fill-0, black)"/>
<path id="Vector_8" d="M137.404 5.33172C136.214 5.33172 134.753 6.17873 134.161 7.21667L129.919 14.639C129.297 15.4762 128.802 15.9315 127.919 15.9854C127.991 15.9903 128.108 15.9854 128.224 15.9854H132.511C133.7 15.9854 135.161 15.1384 135.753 14.1004L140.773 5.32683H137.409L137.404 5.33172Z" fill="var(--fill-0, black)"/>
</g>
<path id="Union" d="M50.3193 4.57729C50.0476 5.09616 49.8042 5.56148 49.5566 6.02651C48.2266 8.51856 46.9014 11.011 45.5762 13.5031C45.1781 14.257 44.775 15.006 44.3818 15.7599C44.2945 15.9312 44.193 16.0001 43.9893 16.0001H38.1885C38.669 15.0945 39.125 14.2329 39.6055 13.3224H33.6055C33.6006 13.3028 33.5908 13.2873 33.5908 13.2677C33.6248 13.2334 33.6594 13.1994 33.6982 13.1749C34.635 12.6315 35.572 12.0836 36.5088 11.5402C36.5913 11.4961 36.6978 11.4806 36.79 11.4806C37.9889 11.4757 39.1927 11.4757 40.3916 11.4806C40.5469 11.4806 40.6254 11.4322 40.6982 11.2951C41.373 10.0075 42.0568 8.72913 42.7363 7.44643C42.7509 7.41222 42.7659 7.37813 42.7949 7.30483H42.5371C40.683 7.30483 38.8337 7.29014 36.9844 7.30483C36.2417 7.30973 35.659 7.6086 35.29 8.31362C34.4503 9.92914 33.6012 11.5399 32.7275 13.1359C31.9703 14.5165 30.8144 15.4179 29.3193 15.8634C29.0234 15.9515 28.6982 15.9806 28.3877 15.9855C27.5285 16.0002 26.6688 15.9904 25.8096 15.9904C25.7369 15.9903 25.6593 15.9806 25.5479 15.9708C25.6886 15.7016 25.8103 15.4617 25.9365 15.2267C27.3151 12.6318 28.6744 10.0168 30.0918 7.44155C30.9559 5.8751 32.3007 4.90622 34.0771 4.5978C34.1885 4.5783 34.2998 4.57242 34.4111 4.57241H50.042L50.3193 4.57729ZM29.9502 4.57241C29.9889 4.57241 30.0233 4.57731 30.1006 4.58706C30.0229 4.74862 29.9556 4.89624 29.8828 5.03823C27.9703 8.62689 26.0522 12.2201 24.1445 15.8136C24.0814 15.936 24.0138 15.9904 23.873 15.9904H19.1309C19.0726 15.9904 19.014 15.9855 18.917 15.9757C19.1888 15.4617 19.441 14.9818 19.6934 14.507C21.1253 11.8193 22.5525 9.12635 23.9844 6.43862C24.2902 5.86581 24.5965 5.29756 24.8975 4.72475C24.9557 4.61226 25.0234 4.57249 25.1445 4.57241H29.9502ZM66.8232 4.57729C67.4203 4.58219 67.9589 4.76914 68.2744 5.33217C68.5363 5.79219 68.5368 6.30084 68.3477 6.77065C68.1147 7.35809 67.8186 7.92157 67.5273 8.47963C66.241 10.9275 64.9445 13.3706 63.6582 15.8136C63.5951 15.9409 63.5127 15.9904 63.3672 15.9904H58.1289C58.066 15.9903 58.0029 15.9806 57.8916 15.9708C58.1197 15.545 58.3187 15.1583 58.5225 14.7765C59.6389 12.6663 60.7556 10.5556 61.8721 8.44545C61.9351 8.33288 61.9886 8.22015 62.0322 8.10268C62.1535 7.77963 62.0371 7.50044 61.7119 7.38784C61.5518 7.33399 61.3769 7.30484 61.2119 7.30483C59.576 7.29504 57.9445 7.29996 56.3086 7.29506C56.1391 7.29517 56.0512 7.35353 55.9736 7.50014C54.5223 10.2565 53.0568 13.0133 51.6055 15.7746C51.5181 15.941 51.4159 15.9904 51.2363 15.9904H46.0762C46.0083 15.9904 45.9405 15.9806 45.834 15.9757C45.8777 15.8778 45.9065 15.8089 45.9404 15.7404C47.2461 13.2681 48.5517 10.7957 49.8623 8.32338C50.4982 7.12878 51.1346 5.93401 51.7607 4.7394C51.8287 4.61706 51.9013 4.57245 52.0371 4.57241C56.9641 4.5773 61.8962 4.57239 66.8232 4.57729ZM88.9727 4.61733C88.9146 4.65639 88.8519 4.70525 88.7891 4.74428C87.2795 5.61574 85.7743 6.4871 84.2646 7.35366C84.1676 7.41239 84.0413 7.43665 83.9297 7.43667C82.5124 7.44156 81.095 7.44156 79.6777 7.43667C79.5127 7.43667 79.4253 7.49593 79.3477 7.64272C77.9157 10.3502 76.473 13.0573 75.0361 15.7697C74.9488 15.9361 74.8474 15.9903 74.668 15.9904H69.4883C69.4155 15.9904 69.3471 15.9806 69.2451 15.9708C70.7596 13.1214 72.255 10.3057 73.7744 7.45131H68.8379C68.8669 7.36848 68.8763 7.31946 68.9004 7.27553C69.3518 6.42371 69.8035 5.57657 70.2549 4.72475C70.3131 4.62194 70.3767 4.56262 70.5029 4.57241H88.7305L88.959 4.56752C88.9638 4.58221 88.9727 4.60264 88.9727 4.61733ZM23.5967 4.63686C23.3831 4.76413 23.1647 4.89631 22.9463 5.02358C21.7232 5.72853 20.5044 6.43778 19.2764 7.13784C19.1308 7.21613 18.9462 7.2706 18.7812 7.27065C16.2813 7.27555 13.7812 7.27555 11.2812 7.27065C10.6453 7.27065 10.1886 7.51028 9.88281 8.0978C9.00423 9.78194 8.09724 11.4518 7.2041 13.1261C7.18956 13.1603 7.17945 13.1994 7.15527 13.2628C7.23775 13.2726 7.30609 13.2824 7.37402 13.2824H12.8252C12.9415 13.2824 13.0337 13.2777 13.1016 13.1505C13.3637 12.6414 13.6403 12.1372 13.9121 11.633C13.9315 11.5938 13.9415 11.5492 13.9658 11.4757H10.3203C10.3154 11.4611 10.3057 11.4464 10.3057 11.4318C10.3444 11.4073 10.3783 11.3732 10.417 11.3488C11.7179 10.585 13.0243 9.82152 14.3301 9.06264C14.4223 9.00886 14.5486 8.97475 14.6602 8.97475H20.8389L21.0674 8.97963C20.9073 9.27814 20.7667 9.55227 20.626 9.82143C20.0386 10.9377 19.47 12.0636 18.8535 13.1603C18.0283 14.6241 16.7861 15.5597 15.1455 15.9318C14.9416 15.9758 14.7273 15.9855 14.5186 15.9855H0C0.160177 15.6869 0.282034 15.4422 0.413086 15.1974C1.78198 12.627 3.14102 10.0461 4.53418 7.48549C5.33514 6.00718 6.58296 5.07251 8.2041 4.65639C8.43695 4.59772 8.68422 4.5773 8.92676 4.57729H23.582C23.5869 4.59687 23.5967 4.61728 23.5967 4.63686Z" fill="var(--fill-0, black)"/>
</g>
</svg>
