<svg preserveAspectRatio="xMidYMid meet" overflow="visible" style="display: block;" viewBox="0 0 14 15.5556" fill="none" xmlns="http://www.w3.org/2000/svg">
<path id="Vector" d="M10.3154 0.00329391C10.2663 -0.0040248 10.2106 0.000549393 10.1502 0.020066C9.34472 0.176198 8.45965 0.644596 7.89582 1.19106C7.41253 1.65946 7.01011 2.44012 7.01011 3.14272C7.01011 3.29885 7.16995 3.45529 7.33104 3.45529C8.21706 3.37722 9.1034 2.90852 9.66723 2.36205C10.1505 1.73752 10.5529 1.03523 10.5529 0.332636C10.5529 0.156987 10.4626 0.02525 10.3154 0.00329391ZM10.5529 3.37752C9.10308 3.37752 8.45965 4.23595 7.49308 4.23595C6.44597 4.23595 5.4794 3.45529 4.27119 3.45529C2.5797 3.45529 0.00155829 5.01631 0.00155829 8.60735C-0.0789889 11.8861 2.98212 15.5556 4.75416 15.5556C5.80127 15.5556 6.04323 14.9304 7.49308 14.9304C8.94293 14.9304 9.26512 15.5556 10.3122 15.5556C11.5204 15.5556 12.4065 14.3062 13.1314 13.2913C13.4536 12.7449 13.6952 12.4332 13.9369 11.9648C14.098 11.6525 13.9365 11.3403 13.6144 11.1841C11.5201 10.1693 11.118 6.89051 13.4539 5.71951C13.8566 5.48531 13.9365 5.016 13.6144 4.7818C12.7283 4.00114 11.4389 3.37752 10.5529 3.37752Z" fill="var(--fill-0, black)"/>
</svg>
