<svg preserveAspectRatio="xMidYMid meet" overflow="visible" style="display: block;" viewBox="0 0 13.9913 14.3022" fill="none" xmlns="http://www.w3.org/2000/svg">
<g id="Group">
<path id="Vector" d="M10.3317 0.747244C10.4585 0.814094 10.5813 0.888416 10.7109 0.949762C10.7125 0.956447 10.7121 0.964311 10.7223 0.964311C10.8228 1.0288 10.9236 1.09172 11.023 1.15778C11.1046 1.21244 11.1851 1.26946 11.2644 1.32727C11.4599 1.47002 11.6479 1.62259 11.8257 1.78697C11.8489 1.8082 11.8717 1.82983 11.8956 1.84988C11.9101 1.86207 11.9137 1.87151 11.8968 1.88449C11.8858 1.89314 11.8768 1.90376 11.867 1.91359C11.3241 2.45744 10.7823 3.00207 10.2379 3.54435C10.1311 3.65091 10.0243 3.75748 9.91557 3.86248C9.89908 3.87821 9.89123 3.9077 9.86729 3.90966C9.84413 3.91163 9.83745 3.88135 9.81979 3.86877C9.79388 3.85029 9.77072 3.82748 9.74638 3.80664C9.74442 3.80664 9.74246 3.80664 9.74089 3.80664C9.70791 3.7681 9.66237 3.74372 9.62822 3.70636C9.62704 3.6985 9.62194 3.69496 9.61448 3.69496C9.57484 3.65485 9.5242 3.62968 9.48141 3.59389C9.48023 3.58524 9.47395 3.58328 9.46649 3.58367C9.44804 3.58013 9.4398 3.56244 9.42527 3.55378C9.42253 3.55221 9.41978 3.55024 9.41742 3.54867C9.40604 3.54081 9.39465 3.53334 9.38366 3.52547C9.38131 3.5239 9.37895 3.52272 9.3762 3.52115C9.36482 3.51328 9.35304 3.50502 9.34166 3.49716C9.3393 3.49598 9.33695 3.49441 9.33459 3.49323C9.32988 3.49008 9.32556 3.48693 9.32085 3.48339C9.3185 3.48182 9.31575 3.48025 9.3134 3.47907C9.2184 3.413 9.11869 3.35402 9.01466 3.30368C9.00956 3.30133 9.00524 3.29818 9.00014 3.29503C8.99818 3.29346 8.99621 3.29189 8.99386 3.29031C8.955 3.26908 8.91731 3.24667 8.87452 3.23329C8.87217 3.23133 8.8702 3.22936 8.86785 3.2274C8.83958 3.2215 8.81917 3.19751 8.79052 3.19279C8.78698 3.18768 8.78816 3.17667 8.77678 3.1806C8.765 3.17785 8.75362 3.1747 8.74184 3.17195C8.7387 3.16605 8.73948 3.15583 8.72771 3.15976C8.68139 3.14914 8.63978 3.12515 8.59502 3.10982C8.43957 3.05634 8.28334 3.00443 8.12435 2.96157C8.09177 2.95292 8.05566 2.94073 8.02543 2.93719C7.9795 2.93168 7.93514 2.91595 7.88921 2.91517C7.83583 2.91399 7.78597 2.89511 7.73337 2.89078C7.66271 2.88528 7.59284 2.87152 7.52218 2.86562C7.34514 2.85067 7.1681 2.84478 6.99066 2.85185C6.89095 2.85579 6.79085 2.86051 6.69154 2.87741C6.65778 2.88331 6.62245 2.87938 6.5879 2.87977C6.58123 2.87859 6.57495 2.87899 6.57495 2.88843C6.56317 2.88803 6.551 2.88764 6.53923 2.88685C6.53216 2.88607 6.52627 2.88685 6.52666 2.89629C6.44658 2.91005 6.3665 2.92264 6.28721 2.93837C6.27111 2.94151 6.25541 2.94112 6.23971 2.94309C6.22911 2.94112 6.22479 2.94977 6.2189 2.95567C6.16002 2.96786 6.10035 2.98005 6.04265 2.9946C5.95354 3.01741 5.86678 3.05123 5.77964 3.08229C5.59592 3.14757 5.41692 3.22504 5.24302 3.31273C5.23791 3.31509 5.2336 3.31863 5.22888 3.32138C5.22378 3.31863 5.223 3.32138 5.2226 3.32571C5.07736 3.40121 4.94075 3.49008 4.80375 3.57895C4.79865 3.57699 4.79708 3.58052 4.7959 3.58406C4.77549 3.59861 4.75468 3.61316 4.73427 3.62771C4.72917 3.62575 4.72759 3.62929 4.72642 3.63282C4.71974 3.63794 4.71307 3.64305 4.7064 3.64816C4.70129 3.64659 4.69972 3.65013 4.69815 3.65367C4.65654 3.68591 4.6169 3.72052 4.57568 3.75316C4.52465 3.79287 4.47401 3.83298 4.42454 3.87506C4.2738 4.00286 4.13366 4.14167 4.00569 4.2915C3.96212 4.34262 3.9209 4.39649 3.87772 4.44761C3.7839 4.55929 3.70107 4.67844 3.62099 4.79956C3.58566 4.85265 3.557 4.91085 3.52285 4.96433C3.43649 5.09803 3.36818 5.24038 3.30184 5.38391C3.2461 5.50464 3.19742 5.62812 3.15464 5.75434C3.15032 5.76693 3.14914 5.78148 3.13776 5.79092C2.82371 5.54671 2.50967 5.30291 2.19563 5.05871C2.0602 4.95332 1.92477 4.84832 1.78973 4.74294C1.63507 4.623 1.48079 4.50267 1.32613 4.38273C1.25468 4.32728 1.18324 4.27223 1.1114 4.21678C0.996774 4.1283 0.882542 4.03983 0.767916 3.95174C0.769094 3.94742 0.769094 3.9423 0.771057 3.93837C0.876653 3.7276 0.992064 3.52233 1.11729 3.32256C1.18245 3.21875 1.25115 3.11729 1.32338 3.0178C1.42819 2.87348 1.53575 2.73113 1.6488 2.5935C1.76461 2.45193 1.8863 2.31548 2.01152 2.18217C2.08768 2.10116 2.16658 2.02291 2.2498 1.94819C2.33342 1.87308 2.41507 1.79601 2.50104 1.72326C2.63961 1.60608 2.77936 1.49046 2.92617 1.38311C3.04825 1.29384 3.1723 1.20733 3.2987 1.12475C3.38075 1.07088 3.46318 1.01661 3.55072 0.970996C3.65436 0.917123 3.75367 0.854991 3.85809 0.801511C3.98724 0.735447 4.11757 0.671742 4.25025 0.61315C4.37116 0.559669 4.49246 0.507369 4.6169 0.462146C4.6326 0.462933 4.64359 0.455461 4.65144 0.442484C4.71307 0.433047 4.76921 0.40434 4.8277 0.385465C4.89836 0.362657 4.96784 0.334737 5.04124 0.320974C5.05224 0.323333 5.05655 0.314682 5.06244 0.30839C5.08757 0.304458 5.10994 0.285976 5.13271 0.283616C5.18374 0.278111 5.23124 0.260415 5.27952 0.246652C5.47502 0.191599 5.67404 0.152668 5.87306 0.113737C5.97238 0.0944688 6.07366 0.0830649 6.17415 0.0696948C6.28446 0.055145 6.39359 0.0343033 6.50547 0.0346966C6.51018 0.0358763 6.51214 0.0331236 6.51292 0.0291913C6.6197 0.0217197 6.72608 0.0142482 6.83286 0.00677669C6.84228 0.00677669 6.8513 0.00599021 6.86073 0.00559697C6.89645 0.00520373 6.93217 0.00481049 6.9675 0.00441726C7.01578 0.00874288 7.06368 0.013855 7.11157 0.000878114H7.16024C7.16692 0.00952935 7.17673 0.00756316 7.18576 0.00756316C7.26977 0.00756316 7.35417 0.00756316 7.43817 0.0079564C7.52571 0.0111023 7.61286 0.02054 7.7 0.0268318C7.74986 0.030371 7.8001 0.0405952 7.85074 0.0346966C7.85231 0.0429546 7.8586 0.0421681 7.86448 0.0409884C7.96537 0.0512126 8.06586 0.0614368 8.16636 0.0752001C8.27666 0.0901432 8.38658 0.105873 8.49532 0.127501C8.56323 0.140871 8.63153 0.156207 8.69905 0.171937C8.78463 0.191599 8.86981 0.21362 8.95617 0.230136C9.02134 0.24272 9.08414 0.261202 9.14617 0.283223C9.15245 0.285582 9.15677 0.284796 9.16226 0.283223C9.16226 0.292268 9.16697 0.294234 9.17482 0.293054C9.19484 0.292661 9.21133 0.309177 9.23214 0.304458C9.23214 0.313502 9.23724 0.315075 9.2447 0.313896C9.28395 0.323727 9.32282 0.33513 9.36207 0.346141C9.42449 0.363837 9.48337 0.393723 9.54579 0.408273C9.5819 0.416531 9.61134 0.43462 9.64471 0.445237C9.71498 0.468045 9.78014 0.50383 9.85159 0.523885C9.85394 0.53057 9.85904 0.531749 9.86532 0.531356C9.98113 0.58405 10.0965 0.636744 10.2123 0.689831C10.2343 0.700055 10.2551 0.711852 10.2763 0.723256C10.2897 0.730728 10.303 0.736627 10.3187 0.733874C10.3223 0.739772 10.3223 0.748817 10.3329 0.747637L10.3317 0.747244Z" fill="var(--fill-0, #E43E2B)"/>
<path id="Vector_2" d="M0.767497 3.9506C0.882122 4.03908 0.996355 4.12756 1.11098 4.21565C1.18243 4.27109 1.25426 4.32615 1.32571 4.38159C1.48037 4.50153 1.63465 4.62186 1.78931 4.7418C1.92474 4.84719 2.06017 4.95218 2.19521 5.05757C2.50925 5.30177 2.8233 5.54558 3.13734 5.78978C3.1393 5.80669 3.13106 5.82124 3.12635 5.83657C3.08788 5.96162 3.04744 6.08667 3.02271 6.21526C3.01094 6.27779 2.99013 6.33874 2.9862 6.40441C2.98385 6.4457 2.96618 6.49053 2.96265 6.53378C2.95794 6.59277 2.94145 6.649 2.93557 6.7072C2.91005 6.9746 2.90377 7.24201 2.92928 7.5098C2.93792 7.603 2.94813 7.69659 2.96344 7.789C2.98935 7.9459 3.02075 8.10202 3.06315 8.25577C3.08434 8.33206 3.10829 8.40756 3.13184 8.48307C3.13538 8.49447 3.1393 8.50509 3.13498 8.51688C3.13184 8.51885 3.1287 8.52003 3.12595 8.52239C2.50925 9.00253 1.89255 9.48268 1.27546 9.96243C1.10666 10.0938 0.937472 10.2235 0.768282 10.3541C0.73099 10.2979 0.705474 10.2357 0.676817 10.1748C0.412629 9.61441 0.224597 9.02888 0.113112 8.41936C0.0746414 8.20898 0.0467701 7.99702 0.027535 7.78389C0.016151 7.65805 0.00908505 7.53182 0.00515953 7.4052C0.00515953 7.39498 0.00751484 7.38397 5.63402e-05 7.37492V7.06072C0.0106553 7.05168 0.00672974 7.03949 0.00672974 7.02848C0.00712229 6.9746 0.00712229 6.92073 0.00751484 6.86725C0.00908505 6.75125 0.0173287 6.63563 0.0279276 6.52002C0.0471627 6.30571 0.0754265 6.09296 0.113897 5.8814C0.218316 5.31121 0.389469 4.76185 0.628141 4.23413C0.671714 4.13818 0.712932 4.04105 0.767104 3.9506H0.767497Z" fill="var(--fill-0, #F0B501)"/>
<path id="Vector_3" d="M7.43771 0.00732151C7.3537 0.00732151 7.2693 0.00732151 7.1853 0.00691973C7.17627 0.00691973 7.16645 0.00892866 7.15978 8.9352e-05C7.25282 8.9352e-05 7.34585 8.9352e-05 7.43849 8.9352e-05C7.43771 0.0016965 7.43653 0.00330365 7.43614 0.00491079C7.43614 0.00571437 7.43692 0.00651794 7.43771 0.0077233V0.00732151Z" fill="var(--fill-0, #EA513B)"/>
<path id="Vector_4" d="M5.63402e-05 6.86482C0.00241166 6.8656 0.00515953 6.866 0.00751484 6.86678C0.00751484 6.92066 0.00751484 6.97453 0.00672974 7.02801C0.00672974 7.03902 0.0106553 7.05121 5.63402e-05 7.06026C5.63402e-05 6.99498 5.63402e-05 6.9297 5.63402e-05 6.86482Z" fill="var(--fill-0, #F8B200)"/>
<path id="Vector_5" d="M7.11073 0.000164687C7.06284 0.0134236 7.01495 0.00779863 6.96667 0.00378077C6.96706 0.00096826 6.96863 -0.0002371 6.97138 0.000164687H7.11073Z" fill="var(--fill-0, #EA513B)"/>
<path id="Vector_6" d="M6.9714 0.000164687C6.96866 -0.0002371 6.96709 0.00096826 6.96669 0.00378077C6.93097 0.00418255 6.89525 0.00458434 6.85992 0.00498613C6.85992 0.00337898 6.85992 0.00177183 6.85992 0.000164687H6.9714Z" fill="var(--fill-0, #FEF5F1)"/>
<path id="Vector_7" d="M6.85992 8.9352e-05C6.85992 8.9352e-05 6.85992 0.00330365 6.85992 0.00491079C6.8505 0.00491079 6.84147 0.00571437 6.83205 0.00611615C6.83205 0.00410722 6.83205 0.00209829 6.83205 8.9352e-05H6.85992Z" fill="var(--fill-0, #FFF9F7)"/>
<path id="Vector_8" d="M0.768311 10.3537C0.937501 10.2231 1.10708 10.0934 1.27549 9.96203C1.89258 9.48228 2.50928 9.00213 3.12598 8.52199C3.12873 8.52002 3.13187 8.51845 3.13501 8.51648C3.146 8.52474 3.14757 8.53811 3.15189 8.54991C3.34071 9.09887 3.62845 9.59081 4.0108 10.0265C4.19961 10.242 4.40924 10.4359 4.63731 10.6093C5.08992 10.9534 5.59082 11.1972 6.14157 11.338C6.28682 11.3749 6.43363 11.4029 6.58202 11.4237C6.7936 11.4536 7.00676 11.4626 7.22031 11.4614C7.30824 11.4611 7.39656 11.4591 7.4841 11.4524C8.1165 11.4032 8.71986 11.2503 9.27728 10.9373C9.36757 10.8865 9.45707 10.8346 9.54108 10.7741C9.59407 10.8142 9.6451 10.8563 9.69967 10.8944C9.74442 10.9255 9.78093 10.9679 9.82607 10.9982C9.93756 11.0733 10.04 11.1606 10.146 11.2428C10.2049 11.2884 10.2669 11.3297 10.3227 11.3785C10.3965 11.443 10.4801 11.4945 10.5535 11.5598C10.6281 11.6262 10.7121 11.6813 10.791 11.7422C10.8679 11.8016 10.946 11.859 11.0202 11.9227C11.0944 11.9864 11.1737 12.0438 11.253 12.1012C11.3119 12.1437 11.3664 12.1925 11.4238 12.2369C11.5686 12.3486 11.7139 12.4599 11.8591 12.5712C11.8501 12.5857 11.8371 12.5967 11.8242 12.6073C11.8191 12.6062 11.8175 12.6093 11.8159 12.6132C11.79 12.6392 11.7633 12.664 11.7339 12.6852C11.7213 12.6852 11.7127 12.6895 11.7146 12.7041C11.7119 12.7068 11.7088 12.7096 11.706 12.7123C11.7009 12.7108 11.6993 12.7143 11.6978 12.7178C11.6934 12.721 11.6895 12.7237 11.6852 12.7269C11.6726 12.7269 11.664 12.7312 11.666 12.7458L11.6573 12.754C11.6526 12.7524 11.6507 12.7556 11.6495 12.7595C11.6452 12.7627 11.6408 12.7658 11.6365 12.769C11.6228 12.7678 11.6161 12.7745 11.6149 12.7878C11.6106 12.791 11.6063 12.7941 11.602 12.7973C11.5937 12.7973 11.5878 12.7992 11.5898 12.8095C11.58 12.8169 11.5698 12.8244 11.56 12.8319C11.5502 12.8303 11.5462 12.8346 11.5462 12.8441C11.5419 12.8441 11.5396 12.846 11.5403 12.8508C11.5239 12.8688 11.5027 12.881 11.4834 12.8952C11.4787 12.8932 11.4775 12.8952 11.4783 12.8999C11.4406 12.9286 11.4026 12.9573 11.3649 12.986C11.3598 12.9837 11.359 12.986 11.3598 12.9904C11.2514 13.0737 11.1399 13.1524 11.0234 13.2235C11.0183 13.2208 11.0175 13.2247 11.0159 13.2279C10.9974 13.2499 10.9657 13.2507 10.9464 13.2723C10.9417 13.2696 10.9405 13.2731 10.939 13.2766C10.9307 13.2912 10.9072 13.2747 10.9025 13.2951L10.9017 13.2963C10.8518 13.338 10.7933 13.3659 10.7372 13.3977C10.7321 13.395 10.7309 13.3989 10.7293 13.4025C10.6905 13.4253 10.6465 13.4383 10.6116 13.4677C10.6065 13.465 10.6057 13.4677 10.6053 13.4721C10.568 13.4913 10.5303 13.511 10.493 13.5303C10.4879 13.5275 10.4867 13.5314 10.4852 13.535C10.4322 13.572 10.3705 13.5916 10.3136 13.6199C10.2084 13.6718 10.0997 13.7163 9.99173 13.7619C9.89595 13.8024 9.80095 13.8441 9.70163 13.8763C9.69614 13.8779 9.69025 13.8775 9.68436 13.8783C9.67651 13.8783 9.66866 13.8767 9.66316 13.8842C9.59761 13.9196 9.52734 13.942 9.45432 13.9554C9.44412 13.9542 9.43509 13.9554 9.43313 13.9679C9.4084 13.9656 9.38916 13.9884 9.36364 13.9829C9.35344 13.9817 9.34402 13.9821 9.34245 13.9955C9.17836 14.0438 9.01231 14.0867 8.84548 14.1248C8.71476 14.1547 8.58168 14.1748 8.44939 14.1984C8.20915 14.2409 7.96694 14.2652 7.72395 14.2821C7.44249 14.3022 7.16103 14.3061 6.87879 14.2987C6.73629 14.2947 6.59458 14.2798 6.45208 14.2731C6.37946 14.2696 6.30605 14.2566 6.23343 14.2479C6.14236 14.2373 6.05286 14.2169 5.96061 14.2106C5.90565 14.2066 5.85265 14.185 5.7977 14.1771C5.71016 14.1646 5.62301 14.1461 5.53783 14.1248C5.44126 14.1013 5.34508 14.0749 5.24891 14.0493C5.11505 14.014 4.98393 13.9703 4.85282 13.9263C4.78884 13.9046 4.72603 13.8795 4.66204 13.8578C4.56626 13.826 4.47558 13.7812 4.38097 13.7458C4.20236 13.6789 4.03278 13.592 3.86398 13.5051C3.71128 13.4265 3.56132 13.3419 3.41529 13.2511C3.31048 13.1858 3.20842 13.1158 3.10518 13.0478C2.94776 12.9436 2.79742 12.8279 2.65099 12.7076C2.56738 12.6392 2.48416 12.5708 2.40604 12.4957C2.33106 12.4241 2.25609 12.3521 2.17797 12.2841C2.09043 12.2074 2.01702 12.1182 1.93498 12.0368C1.86039 11.9628 1.79327 11.8806 1.723 11.8024C1.68649 11.7619 1.65705 11.7127 1.61936 11.6726C1.5224 11.5692 1.44939 11.4477 1.35832 11.3395C1.29551 11.2648 1.2484 11.1763 1.19423 11.0942C1.16832 11.0548 1.13652 11.0191 1.11179 10.9801C1.08746 10.9412 1.06508 10.9003 1.04153 10.8606C0.950455 10.7072 0.866449 10.5499 0.784405 10.3914C0.778124 10.3793 0.767918 10.3686 0.769096 10.3537H0.768311Z" fill="var(--fill-0, #2BA24C)"/>
<path id="Vector_9" d="M11.8587 12.5708C11.7134 12.4595 11.5682 12.3486 11.4233 12.2365C11.3656 12.1921 11.3114 12.1433 11.2526 12.1009C11.1733 12.0434 11.094 11.986 11.0198 11.9223C10.946 11.859 10.8675 11.8012 10.7905 11.7418C10.7116 11.6809 10.6276 11.6258 10.553 11.5594C10.4796 11.4941 10.396 11.4426 10.3222 11.3781C10.2665 11.3293 10.2041 11.288 10.1456 11.2424C10.0396 11.1602 9.93712 11.0729 9.82563 10.9978C9.78049 10.9675 9.74398 10.9251 9.69923 10.894C9.64467 10.8559 9.59363 10.8138 9.54064 10.7737C9.61483 10.721 9.69099 10.6714 9.76282 10.6156C9.88844 10.5189 9.99914 10.4064 10.1114 10.2955C10.3697 10.0399 10.5679 9.74261 10.723 9.41583C10.8314 9.18736 10.9099 8.94866 10.9632 8.70131C10.9676 8.68204 10.9636 8.66238 10.9723 8.64351C10.9758 8.63525 10.9731 8.62699 10.9597 8.62385C10.9424 8.61991 10.9252 8.61952 10.9079 8.61952C9.66743 8.61952 8.42657 8.61952 7.18611 8.61952C7.13036 8.61952 7.13822 8.6266 7.13822 8.57154C7.13822 7.68715 7.13822 6.80276 7.13822 5.91837C7.13822 5.90342 7.13743 5.88809 7.13704 5.87314C7.13782 5.86646 7.13822 5.85938 7.139 5.8527C7.14136 5.85191 7.14371 5.85112 7.14607 5.85034C7.15981 5.85034 7.17394 5.85112 7.18768 5.85112C9.395 5.85112 11.6027 5.85112 13.81 5.85112C13.8238 5.85112 13.8379 5.85034 13.8517 5.85034C13.854 5.85034 13.8568 5.85073 13.8591 5.85112C13.8709 5.8641 13.8693 5.87826 13.8713 5.89517C13.8764 5.94393 13.8748 5.99505 13.9015 6.04106C13.9113 6.05757 13.9129 6.08549 13.9086 6.10319C13.8995 6.14369 13.9117 6.18144 13.918 6.21841C13.9239 6.25419 13.9227 6.29037 13.9302 6.32458C13.9392 6.36705 13.9353 6.4107 13.9439 6.45199C13.9627 6.54008 13.962 6.62934 13.9686 6.71821C13.9851 6.94551 13.9938 7.17319 13.9906 7.40127C13.9855 7.75164 13.9627 8.10045 13.9164 8.44767C13.825 9.13584 13.6483 9.80002 13.3712 10.4367C13.2832 10.6392 13.1843 10.8362 13.0768 11.0289C12.9362 11.2802 12.7788 11.5204 12.6053 11.7505C12.4828 11.9129 12.3525 12.069 12.2143 12.2184C12.1083 12.3329 11.9964 12.441 11.8861 12.5507C11.8783 12.5586 11.8712 12.5692 11.8583 12.5704L11.8587 12.5708Z" fill="var(--fill-0, #3B7DED)"/>
<path id="Vector_10" d="M7.13898 5.85308C7.1382 5.85976 7.1378 5.86684 7.13702 5.87353C7.11896 5.86763 7.1221 5.85701 7.13113 5.8456C7.13388 5.84796 7.13623 5.85072 7.13898 5.85308Z" fill="var(--fill-0, #FAFBFD)"/>
<path id="Vector_11" d="M11.6138 12.7874C11.615 12.7741 11.622 12.7674 11.6354 12.7686C11.6342 12.7819 11.6264 12.7874 11.6138 12.7874Z" fill="var(--fill-0, #F4F9F3)"/>
<path id="Vector_12" d="M11.6652 12.7458C11.6632 12.7308 11.6719 12.7269 11.6844 12.7269C11.6837 12.7391 11.677 12.745 11.6652 12.7458Z" fill="var(--fill-0, #F4F9F3)"/>
<path id="Vector_13" d="M11.7138 12.7037C11.7119 12.6888 11.7205 12.6848 11.7331 12.6848C11.7323 12.697 11.7256 12.7029 11.7138 12.7037Z" fill="var(--fill-0, #F4F9F3)"/>
<path id="Vector_14" d="M9.34163 13.9958C9.3432 13.9821 9.35262 13.9817 9.36283 13.9829C9.36126 13.997 9.35183 13.9966 9.34163 13.9958Z" fill="var(--fill-0, #F4F9F3)"/>
<path id="Vector_15" d="M9.43234 13.9677C9.4343 13.9545 9.44333 13.9537 9.45353 13.9549C9.45196 13.9689 9.44254 13.9685 9.43234 13.9677Z" fill="var(--fill-0, #F4F9F3)"/>
<path id="Vector_16" d="M6.21852 2.9544C6.22441 2.94837 6.22873 2.93953 6.23933 2.94154C6.23815 2.9556 6.22795 2.9548 6.21852 2.9544Z" fill="var(--fill-0, #FEF5F1)"/>
<path id="Vector_17" d="M9.66239 13.8839C9.66789 13.8763 9.67574 13.8775 9.68359 13.8779C9.68084 13.896 9.67103 13.8879 9.66239 13.8839Z" fill="var(--fill-0, #F4F9F3)"/>
<path id="Vector_18" d="M8.77714 3.1794C8.78866 3.17574 8.78747 3.18672 8.79104 3.192C8.7827 3.192 8.77793 3.18794 8.77714 3.1794Z" fill="var(--fill-0, #FEF5F1)"/>
<path id="Vector_19" d="M6.52669 2.89538C6.52629 2.88562 6.53225 2.88481 6.5394 2.88562C6.53821 2.89294 6.53781 2.90147 6.52669 2.89538Z" fill="var(--fill-0, #FEF5F1)"/>
<path id="Vector_20" d="M8.7281 3.15814C8.73949 3.15452 8.73909 3.16457 8.74223 3.17059C8.7336 3.17059 8.72889 3.16658 8.7281 3.15814Z" fill="var(--fill-0, #FEF5F1)"/>
<path id="Vector_21" d="M11.545 12.8437C11.545 12.8339 11.5494 12.8295 11.5589 12.8311C11.5589 12.8404 11.5534 12.8441 11.545 12.8437Z" fill="var(--fill-0, #F4F9F3)"/>
<path id="Vector_22" d="M11.5886 12.8095C11.5862 12.7989 11.5921 12.7965 11.6009 12.7969C11.6009 12.805 11.5965 12.8091 11.5886 12.8095Z" fill="var(--fill-0, #F4F9F3)"/>
<path id="Vector_23" d="M7.86425 0.0408999C7.85829 0.0421194 7.85193 0.0429324 7.85034 0.0343957C7.86067 0.0242328 7.86266 0.0323631 7.86425 0.0408999Z" fill="var(--fill-0, #FFF9F7)"/>
<path id="Vector_24" d="M9.1745 0.292251C9.16695 0.293471 9.16179 0.291438 9.16179 0.282088C9.17291 0.276397 9.17291 0.284934 9.1745 0.292251Z" fill="var(--fill-0, #FEF5F1)"/>
<path id="Vector_25" d="M9.24444 0.313444C9.23689 0.314664 9.23173 0.312631 9.23173 0.303688C9.24285 0.29759 9.24285 0.306534 9.24444 0.313444Z" fill="var(--fill-0, #FEF5F1)"/>
<path id="Vector_26" d="M9.46652 3.58291C9.47397 3.58291 9.47986 3.58452 9.48143 3.59336C9.47005 3.59938 9.46769 3.59175 9.46652 3.58291Z" fill="var(--fill-0, #E94433)"/>
<path id="Vector_27" d="M10.7223 0.963914C10.7125 0.963914 10.7125 0.956049 10.7109 0.949364C10.7196 0.950544 10.7219 0.95605 10.7223 0.963914Z" fill="var(--fill-0, #FEF5F1)"/>
<path id="Vector_28" d="M6.57531 2.88755C6.57531 2.87779 6.58166 2.87779 6.58842 2.87861C6.58723 2.88633 6.58643 2.89487 6.57531 2.88755Z" fill="var(--fill-0, #FEF5F1)"/>
<path id="Vector_29" d="M9.61442 3.69412C9.62227 3.69412 9.62698 3.69774 9.62816 3.70578C9.61756 3.70939 9.61207 3.70658 9.61442 3.69412Z" fill="var(--fill-0, #E94433)"/>
<path id="Vector_30" d="M9.86468 0.530987C9.85832 0.530987 9.85316 0.530174 9.85077 0.523263C9.86229 0.5131 9.86309 0.52245 9.86468 0.530987Z" fill="var(--fill-0, #FEF5F1)"/>
<path id="Vector_31" d="M10.3316 0.747569C10.321 0.748774 10.321 0.739533 10.3175 0.733507C10.3269 0.733507 10.3308 0.73873 10.3316 0.747569Z" fill="var(--fill-0, #FEF5F1)"/>
<path id="Vector_32" d="M7.13897 5.85338C7.13623 5.85096 7.13387 5.84815 7.13112 5.84574C7.14054 5.83489 7.14368 5.84132 7.14604 5.85096C7.14368 5.85177 7.14133 5.85257 7.13897 5.85338Z" fill="var(--fill-0, #DDE3F3)"/>
<path id="Vector_33" d="M13.8596 5.85179C13.8572 5.85179 13.8544 5.85138 13.852 5.85097C13.8536 5.84813 13.8548 5.84569 13.8564 5.84284C13.8576 5.84569 13.8588 5.84894 13.8596 5.85179Z" fill="var(--fill-0, #DDE3F3)"/>
<path id="Vector_34" d="M9.74087 3.80587C9.74087 3.80587 9.74485 3.80587 9.74644 3.80587C9.74485 3.80749 9.74326 3.80912 9.74167 3.81074C9.74167 3.80912 9.74127 3.80749 9.74087 3.80587Z" fill="var(--fill-0, #E94433)"/>
<path id="Vector_35" d="M4.6974 3.65262C4.69899 3.64897 4.70058 3.64531 4.70574 3.64693C4.70296 3.64897 4.70018 3.65059 4.6974 3.65262Z" fill="var(--fill-0, #FFF9F7)"/>
<path id="Vector_36" d="M4.79507 3.58312C4.79666 3.57946 4.79825 3.57581 4.80302 3.57784C4.80024 3.57946 4.79746 3.5815 4.79507 3.58312Z" fill="var(--fill-0, #FFF9F7)"/>
<path id="Vector_37" d="M9.41735 3.54794C9.42013 3.54957 9.42291 3.5516 9.42529 3.55323C9.42013 3.55526 9.41854 3.5516 9.41735 3.54794Z" fill="var(--fill-0, #E94433)"/>
<path id="Vector_38" d="M11.8154 12.6129C11.817 12.6093 11.8186 12.6056 11.8238 12.6068C11.821 12.6089 11.8182 12.6109 11.8154 12.6129Z" fill="var(--fill-0, #F9FCF9)"/>
<path id="Vector_39" d="M9.3762 3.51994C9.37859 3.52157 9.38097 3.52279 9.38375 3.52441C9.37898 3.52685 9.37779 3.5236 9.3762 3.51994Z" fill="var(--fill-0, #E94433)"/>
<path id="Vector_40" d="M11.697 12.7176C11.6986 12.7136 11.7002 12.7103 11.7053 12.7119C11.7026 12.714 11.6998 12.716 11.697 12.7176Z" fill="var(--fill-0, #F4F9F3)"/>
<path id="Vector_41" d="M11.6486 12.7593C11.6498 12.7552 11.6518 12.7524 11.6566 12.7536C11.6538 12.7556 11.6514 12.7573 11.6486 12.7593Z" fill="var(--fill-0, #F4F9F3)"/>
<path id="Vector_42" d="M9.33414 3.49207C9.33652 3.49329 9.3389 3.49492 9.34129 3.49614C9.33652 3.49939 9.33533 3.49532 9.33414 3.49207Z" fill="var(--fill-0, #E94433)"/>
<path id="Vector_43" d="M9.31297 3.47787C9.31535 3.4795 9.31813 3.48112 9.32052 3.48234C9.31535 3.48478 9.31416 3.48112 9.31297 3.47787Z" fill="var(--fill-0, #E94433)"/>
<path id="Vector_44" d="M5.22219 3.32435C5.22219 3.32029 5.22338 3.31704 5.22854 3.31988L5.22219 3.32435Z" fill="var(--fill-0, #FFF9F7)"/>
<path id="Vector_45" d="M11.5391 12.8502C11.5383 12.8453 11.5407 12.8432 11.5451 12.8432C11.5431 12.8457 11.5411 12.8477 11.5391 12.8502Z" fill="var(--fill-0, #F4F9F3)"/>
<path id="Vector_46" d="M11.4767 12.8993C11.4759 12.8948 11.4767 12.8924 11.4818 12.8944C11.4803 12.8961 11.4783 12.8977 11.4767 12.8993Z" fill="var(--fill-0, #F4F9F3)"/>
<path id="Vector_47" d="M11.3582 12.9901C11.3574 12.9852 11.3582 12.9828 11.3634 12.9856L11.3582 12.9901Z" fill="var(--fill-0, #F9FCF9)"/>
<path id="Vector_48" d="M11.0143 13.2277C11.0155 13.2244 11.0167 13.2204 11.0219 13.2232C11.0195 13.2248 11.0171 13.226 11.0143 13.2277Z" fill="var(--fill-0, #F9FCF9)"/>
<path id="Vector_49" d="M10.9377 13.276C10.9389 13.2723 10.9401 13.2687 10.9452 13.2715C10.9429 13.2731 10.9405 13.2743 10.9377 13.276Z" fill="var(--fill-0, #F9FCF9)"/>
<path id="Vector_50" d="M10.9009 13.2947C10.9009 13.2947 10.9041 13.2967 10.906 13.2979C10.9025 13.3032 10.9021 13.2963 10.9001 13.2959L10.9009 13.2947Z" fill="var(--fill-0, #F9FCF9)"/>
<path id="Vector_51" d="M10.7281 13.4023C10.7297 13.3986 10.7309 13.3945 10.7361 13.3974C10.7333 13.399 10.7309 13.4006 10.7281 13.4023Z" fill="var(--fill-0, #F9FCF9)"/>
<path id="Vector_52" d="M10.604 13.4718C10.604 13.4678 10.6048 13.4641 10.6104 13.4673C10.6084 13.469 10.6064 13.4702 10.604 13.4718Z" fill="var(--fill-0, #F9FCF9)"/>
<path id="Vector_53" d="M10.484 13.5348C10.4856 13.5311 10.4868 13.527 10.492 13.5299C10.4892 13.5315 10.4868 13.5331 10.484 13.5348Z" fill="var(--fill-0, #F9FCF9)"/>
<path id="Vector_54" d="M8.99378 3.28949C8.99577 3.29112 8.99776 3.29274 9.00014 3.29437C8.99498 3.29721 8.99418 3.29396 8.99378 3.28949Z" fill="var(--fill-0, #E94433)"/>
<path id="Vector_55" d="M8.86824 3.22626C8.87062 3.22829 8.87261 3.23032 8.87499 3.23236C8.87023 3.23317 8.86824 3.23073 8.86824 3.22626Z" fill="var(--fill-0, #E94433)"/>
<path id="Vector_56" d="M4.72566 3.63176C4.72725 3.62811 4.72844 3.62445 4.73361 3.62648C4.73083 3.62811 4.72804 3.63014 4.72566 3.63176Z" fill="var(--fill-0, #FFF9F7)"/>
<path id="Vector_57" d="M4.61563 0.460939C4.62309 0.447176 4.63094 0.434593 4.65017 0.441278C4.64232 0.454254 4.63133 0.461333 4.61563 0.460939Z" fill="var(--fill-0, #EA513B)"/>
<path id="Vector_58" d="M5.04038 0.320492C5.04195 0.30643 5.05176 0.306831 5.06158 0.307635C5.05608 0.314465 5.05137 0.322903 5.04038 0.320492Z" fill="var(--fill-0, #FEF5F1)"/>
<path id="Vector_59" d="M6.50432 0.0340445C6.5067 0.0320119 6.50948 0.0299794 6.51187 0.0283533C6.51107 0.0324185 6.50909 0.0352641 6.50432 0.0340445Z" fill="var(--fill-0, #FFF9F7)"/>
</g>
</svg>
