<svg xmlns="http://www.w3.org/2000/svg" id="ic-line" viewBox="0 0 24 24" fill="none">
<path fill-rule="evenodd" clip-rule="evenodd" d="M20.4021 10.8173C20.4021 7.05845 16.6336 4 12.0011 4C7.36857 4 3.60001 7.05845 3.60001 10.8173C3.60001 13.8097 5.95632 16.3701 9.31083 17.2803C9.83348 17.422 10.5416 17.4684 10.9916 17.6532C11.0365 17.6717 11.08 17.6924 11.1209 17.7149C11.5002 17.9257 11.4441 18.3352 11.3933 18.7175C11.3933 18.7175 11.2952 19.3102 11.2734 19.4365C11.0786 20.5715 12.5495 19.6844 13.0817 19.4252C16.2938 17.8603 20.4021 14.3192 20.4021 10.8173Z" fill="#03C100"/>
<path fill-rule="evenodd" clip-rule="evenodd" d="M10.2945 9.00098H9.70501C9.61488 9.00098 9.54118 9.07405 9.54118 9.16434V12.8249C9.54118 12.9151 9.61488 12.9883 9.70501 12.9883H10.2945C10.3848 12.9883 10.4578 12.9152 10.4578 12.8249V9.16434C10.4578 9.07405 10.3848 9.00098 10.2945 9.00098ZM14.3502 9.00098H13.7613C13.6706 9.00098 13.5975 9.07405 13.5975 9.16434V11.3393L11.92 9.07358C11.9064 9.0559 11.903 9.05246 11.8967 9.0462C11.8903 9.04057 11.875 9.02867 11.8721 9.02695C11.8584 9.01897 11.8532 9.01678 11.8435 9.01271C11.8286 9.00771 11.8228 9.00598 11.8131 9.00426C11.789 9.00145H11.1946C11.1043 9.00145 11.0307 9.07452 11.0307 9.16481V12.8254C11.0307 12.9155 11.1044 12.9888 11.1946 12.9888H11.784C11.8743 12.9888 11.9474 12.9157 11.9474 12.8254V10.6516L13.6271 12.9196C13.6385 12.9362 13.6527 12.9493 13.6682 12.9601C13.6734 12.9636 13.6803 12.9675 13.6848 12.9698C13.6928 12.9739 13.7008 12.9773 13.706 12.9791C13.7168 12.9825 13.7191 12.983 13.7322 12.9864C13.7465 12.9888 13.7613 12.9888H14.3502C14.4405 12.9888 14.5142 12.9157 14.5142 12.8254V9.16481C14.5142 9.07452 14.4405 9.00145 14.3502 9.00145V9.00098ZM8.87394 12.0715H7.2725V9.16434C7.2725 9.07405 7.19942 9.00098 7.10913 9.00098H6.51966C6.42937 9.00098 6.35629 9.07405 6.35629 9.16434V12.8249C6.35629 12.8689 6.37335 12.9083 6.40199 12.9381C6.43626 12.9711 6.47569 12.9883 6.5195 12.9883H8.87378C8.96407 12.9883 9.03715 12.9152 9.03715 12.8245V12.2356C9.03715 12.1449 8.96407 12.0716 8.87378 12.0716L8.87394 12.0715ZM17.6047 9.91765C17.695 9.91765 17.7681 9.84457 17.7681 9.75381V9.16497C17.7681 9.07405 17.695 9.00098 17.6047 9.00098H15.2504C15.2058 9.00098 15.1666 9.01866 15.1368 9.0473C15.1323 9.05168 15.1043 9.08078 15.0872 9.12022C15.0872 9.16419V12.8248C15.0872 12.8687 15.1043 12.9082 15.1329 12.9379C15.1376 12.9425 15.1667 12.9705 15.2506 12.9881H17.6049C17.6952 12.9881 17.7682 12.9151 17.7682 12.8243V12.2355C17.7682 12.1452 17.6952 12.0715 17.6049 12.0715H16.0039V11.4529H17.6049C17.6952 11.4529 17.7682 11.3798 17.7682 11.2891V10.7001C17.7682 10.6093 17.6952 10.5362 17.6049 10.5362H16.0039V9.91765H17.6049H17.6047Z" fill="white"/>
</svg>