<svg width="20" height="20" viewBox="0 0 20 20" fill="none" xmlns="http://www.w3.org/2000/svg">
<g clip-path="url(#clip0_1206_7343)">
<circle cx="10" cy="10" r="10" fill="#DAE2F6"/>
<path d="M15 6.9375V13.0625C15 13.4422 14.6922 13.75 14.3125 13.75H5.6875C5.3078 13.75 5 13.4422 5 13.0625V6.9375C5 6.92301 5.00302 6.90879 5.00391 6.89453L9.80176 10.2812L10 10.4209L10.1982 10.2812L14.9951 6.89453C14.996 6.90881 15 6.92299 15 6.9375ZM14.3125 6.25C14.4207 6.25 14.5222 6.27675 14.6133 6.32129L10 9.57812L5.38574 6.32129C5.47701 6.27651 5.57898 6.25 5.6875 6.25H14.3125Z" fill="#0050FC"/>
</g>
<defs>
<clipPath id="clip0_1206_7343">
<rect width="20" height="20" fill="white"/>
</clipPath>
</defs>
</svg>
