<svg width="20" height="20" viewBox="0 0 20 20" fill="none" xmlns="http://www.w3.org/2000/svg">
<g clip-path="url(#clip0_1088_10347)">
<circle cx="10" cy="10" r="10" fill="#F2F2F5"/>
<path d="M12.4495 4.5C13.0535 4.5 13.5432 4.98968 13.5432 5.59375V14.4062C13.5432 15.0103 13.0535 15.5 12.4495 15.5H7.55005C6.946 15.5 6.45634 15.0103 6.4563 14.4062V5.59375C6.45634 4.98971 6.946 4.50004 7.55005 4.5H12.4495ZM9.9436 13.1436C9.55836 13.1436 9.24634 13.467 9.24634 13.8662C9.24645 14.2653 9.55843 14.5889 9.9436 14.5889C10.3287 14.5888 10.6408 14.2653 10.6409 13.8662C10.6409 13.467 10.3288 13.1437 9.9436 13.1436ZM8.94263 5.83594C8.81719 5.83619 8.71518 5.94134 8.71509 6.07129C8.71509 6.20132 8.81714 6.30737 8.94263 6.30762H11.0657C11.1914 6.30762 11.2932 6.20147 11.2932 6.07129C11.2931 5.94119 11.1913 5.83594 11.0657 5.83594H8.94263Z" fill="#0050FC"/>
</g>
<defs>
<clipPath id="clip0_1088_10347">
<rect width="20" height="20" fill="white"/>
</clipPath>
</defs>
</svg>
